<?xml version="1.0" encoding="iso-8859-1"?>
<!-- Generator: Adobe Illustrator 19.0.0, SVG Export Plug-In . SVG Version: 6.00 Build 0)  -->
<svg xmlns="http://www.w3.org/2000/svg" xmlns:xlink="http://www.w3.org/1999/xlink" version="1.1" id="Layer_1" x="0px" y="0px" viewBox="0 0 511 511" style="enable-background:new 0 0 511 511;" xml:space="preserve" width="512" height="512">
<g>
	<g>
		<rect x="89" y="122.5" style="fill:#FFDE55;" width="260" height="341"/>
		<g>
			<path style="fill:#FFD215;" d="M219,197.5c-11.046,0-20,8.954-20,20v30c0-11.046,8.954-20,20-20s20,8.954,20,20v-30     C239,206.454,230.046,197.5,219,197.5z"/>
			<path style="fill:#FFD215;" d="M294,197.5c-11.046,0-20,8.954-20,20v30c0-11.046,8.954-20,20-20s20,8.954,20,20v-30     C314,206.454,305.046,197.5,294,197.5z"/>
			<path style="fill:#FFD215;" d="M349,122.5H89v27.635c3.577,0.915,7.248,1.586,11,1.97V195.5c0,27.57,22.43,50,50,50     s50-22.43,50-50v-4.005c19.562-3.987,35.008-19.434,38.995-38.995h89.325c7.052,0,14.037-1.186,20.68-3.401V122.5z"/>
			<rect x="89" y="433.5" style="fill:#FFD215;" width="260" height="30"/>
		</g>
		<path style="fill:#E4EDFB;" d="M349,503.5H89c-11.046,0-20-8.954-20-20v0c0-11.046,8.954-20,20-20h260c11.046,0,20,8.954,20,20v0    C369,494.546,360.046,503.5,349,503.5z"/>
		<path style="fill:#E4EDFB;" d="M349,168.5v40h40c11.046,0,20,8.954,20,20v100c0,11.046-8.954,20-20,20h-40v40h40    c33.137,0,60-26.863,60-60v-100c0-33.137-26.863-60-60-60H349z"/>
		<path style="fill:#E4EDFB;" d="M329.68,52.517C327.225,32.779,310.403,17.5,290,17.5c-12.958,0-24.471,6.167-31.781,15.72    c-6.94-3.647-14.835-5.72-23.219-5.72c-10.3,0-19.871,3.117-27.826,8.456C197.807,18.993,179.748,7.5,159,7.5    c-19.461,0-36.548,10.117-46.325,25.369c-1.86-0.234-3.751-0.369-5.675-0.369c-25.109,0-45.414,20.564-44.994,45.769    c0.412,24.674,21.057,44.231,45.734,44.231H110c11.046,0,20,8.954,20,20v53c0,11.046,8.954,20,20,20h0c11.046,0,20-8.954,20-20    v-13c0-11.046,8.954-20,20-20h0c11.046,0,20-8.954,20-20l0,0c0-11.046,15.954-20,27-20h91.321    c19.489,0,35.914-15.946,35.677-35.434C363.768,68.164,348.551,52.878,329.68,52.517z"/>
		<g>
			<rect x="349" y="168.5" style="fill:#BCC8D9;" width="30" height="40"/>
			<rect x="349" y="348.5" style="fill:#BCC8D9;" width="30" height="40"/>
		</g>
		<path style="fill:#BCC8D9;" d="M363.55,90.673c-0.543,0.55-2.041,1.827-4.229,1.827H76.74c-6.3,0-11.784-3.6-14.288-8.745    c3.118,22.023,22.474,38.745,45.289,38.745H110c11.046,0,20,8.954,20,20v53c0,11.046,8.954,20,20,20s20-8.954,20-20v-13    c0-11.046,8.954-20,20-20l0,0c11.046,0,20-8.954,20-20c0-11.046,15.954-20,27-20h91.321c18.394,0,34.051-14.207,35.554-32.187    C363.765,90.442,363.656,90.565,363.55,90.673z"/>
	</g>
	<g>
		<path d="M191.5,217.5v191c0,15.163,12.337,27.5,27.5,27.5s27.5-12.337,27.5-27.5v-191c0-15.163-12.337-27.5-27.5-27.5    S191.5,202.337,191.5,217.5z M231.5,217.5v191c0,6.893-5.607,12.5-12.5,12.5s-12.5-5.607-12.5-12.5v-191    c0-6.893,5.607-12.5,12.5-12.5S231.5,210.607,231.5,217.5z"/>
		<path d="M266.5,408.5c0,15.163,12.337,27.5,27.5,27.5s27.5-12.337,27.5-27.5v-191c0-15.163-12.337-27.5-27.5-27.5    s-27.5,12.337-27.5,27.5V408.5z M281.5,217.5c0-6.893,5.607-12.5,12.5-12.5s12.5,5.607,12.5,12.5v191    c0,6.893-5.607,12.5-12.5,12.5s-12.5-5.607-12.5-12.5V217.5z"/>
		<path d="M450.41,200.447l-13.641,6.24c3.139,6.861,4.73,14.2,4.73,21.813v100c0,28.948-23.552,52.5-52.5,52.5h-32.5v-25H389    c15.163,0,27.5-12.337,27.5-27.5v-100c0-15.163-12.337-27.5-27.5-27.5h-32.5v-25H389c15.949,0,30.85,7.128,40.88,19.557    l11.674-9.42C428.661,170.162,409.506,161,389,161h-32.5v-41.344c9.175-7.803,14.999-19.327,14.999-32.174l-0.003-0.509    c-0.056-4.564-0.833-9.051-2.311-13.334l-14.18,4.891c0.954,2.766,1.456,5.668,1.491,8.591l0.002,0.361    c0,14.916-12.904,27.518-28.179,27.518h-52.929v15h52.929c4.595,0,9.022-0.717,13.18-2.033V456h-245v-51.5h-15v52.548    c-11.528,3.274-20,13.889-20,26.452c0,15.163,12.337,27.5,27.5,27.5h260c15.163,0,27.5-12.337,27.5-27.5    c0-12.563-8.472-23.178-20-26.452V396H389c37.22,0,67.5-30.28,67.5-67.5v-100C456.5,218.72,454.451,209.281,450.41,200.447z     M389,216c6.893,0,12.5,5.607,12.5,12.5v100c0,6.893-5.607,12.5-12.5,12.5h-32.5V216H389z M361.5,483.5    c0,6.893-5.607,12.5-12.5,12.5H89c-6.893,0-12.5-5.607-12.5-12.5S82.107,471,89,471h260C355.893,471,361.5,476.607,361.5,483.5z"/>
		<path d="M115.5,232.709V408.5c0,15.163,12.337,27.5,27.5,27.5s27.5-12.337,27.5-27.5V239.617h-15V408.5    c0,6.893-5.607,12.5-12.5,12.5s-12.5-5.607-12.5-12.5V232.709H115.5z"/>
		<path d="M107,40c1.531,0,3.081,0.102,4.738,0.311l4.697,0.592l2.555-3.986C127.786,23.193,142.743,15,159,15    c17.292,0,33.235,9.419,41.608,24.582l3.954,7.159l6.791-4.558C218.355,37.484,226.532,35,235,35c6.955,0,13.593,1.635,19.73,4.86    l5.6,2.942l3.845-5.024C270.39,29.657,279.802,25,290,25c16.362,0,30.221,12.228,32.237,28.443l0.802,6.449l6.498,0.124    c7.394,0.141,14.277,3.17,19.384,8.531l10.861-10.346c-6.453-6.775-14.745-11.141-23.805-12.625C330.643,24.92,311.848,10,290,10    c-12.862,0-24.868,5.065-33.749,14.073C249.514,21.397,242.271,20,235,20c-8.869,0-17.505,2.017-25.354,5.881    C197.975,9.752,179.188,0,159,0c-19.854,0-38.23,9.279-50.018,25.04C108.314,25.014,107.652,25,107,25    c-20.907,0-39.81,12.388-48.156,31.56l13.754,5.988C78.561,48.851,92.064,40,107,40z"/>
		<path d="M81.5,123.092V389.5h15V128.795c3.63,0.781,7.389,1.205,11.24,1.205H110c6.893,0,12.5,5.607,12.5,12.5v53    c0,15.163,12.337,27.5,27.5,27.5s27.5-12.337,27.5-27.5v-13c0-6.893,5.607-12.5,12.5-12.5c15.163,0,27.5-12.337,27.5-27.5    c0-5.374,11.117-12.5,19.5-12.5h23.392v-15H237c-13.734,0-34.5,10.968-34.5,27.5c0,6.893-5.607,12.5-12.5,12.5    c-15.163,0-27.5,12.337-27.5,27.5v13c0,6.893-5.607,12.5-12.5,12.5s-12.5-5.607-12.5-12.5v-53c0-15.163-12.337-27.5-27.5-27.5    h-2.26c-20.744,0-37.896-16.533-38.234-36.874c-0.004-0.208-0.006-0.417-0.006-0.625c0-0.966,0.037-1.938,0.109-2.891    l-14.957-1.139c-0.101,1.329-0.152,2.685-0.152,4.029c0,0.304,0.002,0.608,0.008,0.894C54.826,97.478,65.68,114.163,81.5,123.092z    "/>
		<path d="M180,62c-2.599,0-5.148,0.302-7.63,0.901C165.691,54.822,155.679,50,145,50c-19.575,0-35.5,15.925-35.5,35.5h15    c0-11.304,9.196-20.5,20.5-20.5c7.41,0,14.267,4.025,17.896,10.505l3.404,6.078l6.313-2.947C174.938,77.551,177.423,77,180,77    c9.649,0,17.5,7.851,17.5,17.5h15C212.5,76.579,197.921,62,180,62z"/>
		<path d="M289.5,88.5h15c0-15.163-12.337-27.5-27.5-27.5s-27.5,12.337-27.5,27.5h15c0-6.893,5.607-12.5,12.5-12.5    S289.5,81.607,289.5,88.5z"/>
	</g>
	<g>
		<rect x="151.5" y="127.5" style="fill:#FFFFFF;" width="15" height="15"/>
		<rect x="181.5" y="109.5" style="fill:#FFFFFF;" width="15" height="15"/>
		<path style="fill:#FFFFFF;" d="M322,161h-50v-15h50V161z M257,161h-15v-15h15V161z"/>
	</g>
</g>















</svg>
