<?xml version="1.0" encoding="iso-8859-1"?>
<!-- Generator: Adobe Illustrator 19.0.0, SVG Export Plug-In . SVG Version: 6.00 Build 0)  -->
<svg version="1.1" id="Capa_1" xmlns="http://www.w3.org/2000/svg" xmlns:xlink="http://www.w3.org/1999/xlink" x="0px" y="0px"
	 viewBox="0 0 467.765 467.765" style="enable-background:new 0 0 467.765 467.765;" xml:space="preserve">
<g>
	<g>
		<path d="M465.979,305.962c7.52-25.68-10.56-53.92-19.76-66.08c0.707-1.353,1.012-2.879,0.88-4.4
			c-4.72-29.04-31.2-49.12-45.36-57.92c1.44-1.92,2.32-3.28,2.48-3.52c2.412-3.702,1.366-8.658-2.336-11.07
			c-0.253-0.165-0.515-0.315-0.784-0.45c-11.793-5.791-24.783-8.723-37.92-8.56c-35.68,0-67.52,21.04-80.64,30.96l-39.44-38.16
			v-54.48c0-4.418-3.582-8-8-8s-8,3.582-8,8v54.16l-39.44,39.52c-12.88-9.84-44.72-30.88-80.64-30.88
			c-13.189-0.076-26.21,2.967-38,8.88c-3.879,2.116-5.308,6.976-3.192,10.854c0.049,0.09,0.099,0.178,0.152,0.266l0.72,1.04
			c-14.16,8.72-41.12,28.88-45.84,57.84c-0.232,1.49-0.038,3.015,0.56,4.4c-9.2,12.56-27.44,40.88-19.44,66.48
			c0.831,2.85,3.171,5.006,6.08,5.6h0.56c-4.32,13.76-9.44,39.04,3.6,57.28c0,0,0.64,0.48,0.96,0.8
			c0.478,0.732,1.072,1.38,1.76,1.92c8.606,5.637,18.762,8.435,29.04,8c9.596-0.16,19.114-1.751,28.24-4.72v0.56
			c0.594,2.909,2.75,5.249,5.6,6.08c4.16,1.198,8.471,1.79,12.8,1.76c21.76,0,43.2-13.92,53.36-21.6
			c0.956,0.437,1.989,0.682,3.04,0.72h1.28c29.04-4.72,49.12-31.2,57.92-45.28l3.52,2.48c1.288,0.832,2.787,1.276,4.32,1.28
			c0.69,0.091,1.39,0.091,2.08,0c2.196-0.606,4.029-2.119,5.04-4.16c24.64-48.96-8.48-100.64-22-118.56l36.24-36l36,34.88
			c-13.2,17.36-46.8,69.04-21.92,118.56c1.979,3.95,6.785,5.549,10.736,3.57c0.27-0.135,0.532-0.285,0.784-0.45l1.04-0.72
			c8.64,14,28.88,41.04,58.24,45.76h1.28c1.051-0.038,2.084-0.283,3.04-0.72c10.16,8,32,21.6,53.36,21.6
			c4.329,0.026,8.639-0.567,12.8-1.76c2.85-0.831,5.006-3.171,5.6-6.08v-0.56c9.126,2.969,18.644,4.56,28.24,4.72
			c10.278,0.435,20.434-2.363,29.04-8c0.688-0.54,1.282-1.188,1.76-1.92c0,0,0.72-0.48,0.96-0.8c13.04-18.24,8-43.52,3.6-57.28h0.56
			C463.263,310.964,465.335,308.739,465.979,305.962z M34.379,248.042c7.913,3.729,16.533,5.72,25.28,5.84h2.88
			c-0.109,1.972-0.109,3.948,0,5.92c0.22,2.762,1.855,5.214,4.32,6.48c1.378,0.667,2.794,1.255,4.24,1.76
			c-3.876,6.835-6.58,14.272-8,22c-12.72,8-35.2,7.52-48,5.84C14.139,278.842,25.979,258.762,34.379,248.042z M69.819,357.962
			c-11.52,4.08-32.4,8.56-45.36,0c-8.64-12.88-4.16-33.84,0-45.36c2.64,0,5.52,0,8.48,0c10.659,0.22,21.266-1.543,31.28-5.2
			c0,1.2,0.56,2.4,0.96,3.68c0.515,1.603,1.523,3.003,2.88,4c0.869,0.902,1.938,1.587,3.12,2c1.2,0,2.48,0.56,3.68,0.88
			C70.337,330.782,68.619,344.422,69.819,357.962z M65.259,237.322v0.08c-9.501,1.132-19.116-0.802-27.44-5.52
			c6.24-21.44,28.56-36.88,38.88-43.04c3.297,3.659,6.796,7.131,10.48,10.4C77.308,210.276,69.843,223.245,65.259,237.322z
			 M99.899,208.922c7.362,4.932,15.464,8.659,24,11.04c-3.096,8.963-4.321,18.465-3.6,27.92c-12.682,7.178-27.662,9.129-41.76,5.44
			C79.339,234.602,92.699,217.002,99.899,208.922z M79.419,302.842c-1.081-11.325,1.896-22.666,8.4-32h4.72
			c7.472-0.025,14.894-1.212,22-3.52c-2.811,8.611-3.952,17.681-3.36,26.72C101.962,300.632,90.712,303.749,79.419,302.842z
			 M86.699,366.282c-1.76-12.48-2.56-34.88,5.84-48c7.732-1.405,15.171-4.11,22-8c0.502,1.473,1.09,2.915,1.76,4.32
			c1.266,2.465,3.718,4.1,6.48,4.32h4.56h1.28c-0.405,9.707,1.543,19.369,5.68,28.16
			C123.579,356.122,103.579,368.202,86.699,366.282z M129.019,303.722c-3.561-13.441-1.904-27.731,4.64-40
			c10.412,1.281,20.979,0.27,30.96-2.96c2.094,7.477,5.245,14.616,9.36,21.2C166.139,289.002,148.139,303.002,129.019,303.722z
			 M150.526,344.5c-4.703-8.292-6.633-17.871-5.508-27.337c14.21-4.617,27.292-12.167,38.4-22.16
			c3.143,3.847,6.509,7.507,10.08,10.96C187.265,316.111,171.851,337.914,150.526,344.5z M209.979,299.322
			c-0.597-0.766-1.329-1.416-2.16-1.92c-10.88-9.6-26.8-26.88-29.2-48c-0.483-4.392-4.435-7.56-8.827-7.077
			c-0.849,0.093-1.677,0.322-2.453,0.677c-8.051,3.523-16.666,5.582-25.44,6.08c-1.799,0.029-3.595-0.132-5.36-0.48
			c-0.834-10.57,1.067-21.177,5.52-30.8c1.838-4.018,0.071-8.765-3.947-10.603c-0.776-0.355-1.604-0.584-2.453-0.677
			c-23.04-2.64-41.52-21.04-50.48-32c7.022-2.307,14.369-3.468,21.76-3.44c37.44,0,71.6,27.92,75.6,31.28
			C186.939,207.162,225.339,254.282,209.979,299.322z M259.819,297.962c-14.88-45.2,24-92.72,27.84-97.36
			c3.84-4.64,37.84-30.64,75.52-30.64c7.391-0.028,14.738,1.133,21.76,3.44c-0.773,0.621-1.424,1.381-1.92,2.24
			c-9.6,10.88-26.88,26.72-48,29.2c-4.392,0.483-7.56,4.435-7.077,8.827c0.093,0.849,0.322,1.677,0.677,2.453
			c4.447,9.625,6.347,20.23,5.52,30.8c-1.765,0.347-3.561,0.508-5.36,0.48c-8.774-0.498-17.389-2.557-25.44-6.08
			c-4.018-1.838-8.765-0.071-10.603,3.947c-0.355,0.776-0.584,1.604-0.677,2.453C288.939,270.842,270.539,289.242,259.819,297.962z
			 M317.499,345.962c-21.44-6.24-36.88-28.56-43.04-38.88c3.659-3.297,7.131-6.796,10.4-10.48c11.072,9.921,24.098,17.414,38.24,22
			C324.195,328.086,322.233,337.672,317.499,345.962z M294.539,283.562c4.937-7.36,8.664-15.462,11.04-24
			c8.983,2.879,18.426,4.046,27.84,3.44c7.296,12.726,9.306,27.807,5.6,42C320.219,304.122,302.619,290.682,294.539,283.562z
			 M381.259,367.402c-16.88,1.84-36.88-10.24-47.6-18.4c4.149-8.815,6.098-18.506,5.68-28.24h1.28h4.64
			c2.762-0.22,5.214-1.855,6.48-4.32c0.671-1.377,1.259-2.793,1.76-4.24c6.854,3.897,14.32,6.602,22.08,8
			C383.819,332.522,382.939,355.002,381.259,367.402z M388.539,303.962c-11.325,1.081-22.666-1.896-32-8.4
			c0.592-9.039-0.549-18.109-3.36-26.72c7.106,2.308,14.528,3.495,22,3.52h4.72C386.395,281.556,389.454,292.741,388.539,303.962z
			 M349.259,249.962c1.452-10.486,0.326-21.167-3.28-31.12c7.532-2.08,14.725-5.232,21.36-9.36c7.04,8,21.04,25.68,21.84,44.96
			C375.782,258.015,361.53,256.416,349.259,249.962z M380.658,200.088c3.749-3.17,7.316-6.55,10.68-10.125
			c10.4,6.24,32.56,21.68,38.8,43.04c-8.308,4.761-17.937,6.698-27.44,5.52C398.119,224.311,390.611,211.218,380.658,200.088z
			 M443.499,358.922l-0.08,0.08c-12.88,8.64-33.76,4.16-45.36,0c1.223-13.535-0.468-27.174-4.96-40c1.2,0,2.48-0.48,3.68-0.88
			c1.219-0.425,2.317-1.139,3.2-2.08c1.357-0.997,2.365-2.397,2.88-4c0-1.2,0.64-2.48,0.96-3.68
			c10.014,3.659,20.621,5.422,31.28,5.2c2.96,0,5.84,0,8.48,0C447.659,325.082,452.139,345.962,443.499,358.922z M451.979,296.682
			l-0.08,0.08c-12.48,1.76-34.96,2.56-48-5.84c-1.422-7.728-4.126-15.164-8-22c1.448-0.498,2.864-1.086,4.24-1.76
			c2.465-1.266,4.1-3.718,4.32-6.48c0.108-1.972,0.108-3.948,0-5.92h2.88c8.747-0.122,17.366-2.114,25.28-5.84
			C441.979,259.882,453.819,279.962,451.979,296.682z"/>
	</g>
</g>
<g>
</g>
<g>
</g>
<g>
</g>
<g>
</g>
<g>
</g>
<g>
</g>
<g>
</g>
<g>
</g>
<g>
</g>
<g>
</g>
<g>
</g>
<g>
</g>
<g>
</g>
<g>
</g>
<g>
</g>
</svg>
